<?xml version="1.0" encoding="utf-8"?>
<!-- Generator: Adobe Illustrator 24.0.0, SVG Export Plug-In . SVG Version: 6.00 Build 0)  -->
<svg version="1.1" id="Layer_1" xmlns="http://www.w3.org/2000/svg" xmlns:xlink="http://www.w3.org/1999/xlink" x="0px" y="0px"
	 viewBox="0 0 890.61 1000" style="enable-background:new 0 0 890.61 1000;" xml:space="preserve">
<style type="text/css">
	.st0{fill:#DFF2F6;}
	.st1{fill:url(#SVGID_1_);}
	.st2{fill:url(#SVGID_2_);}
	.st3{fill:url(#SVGID_3_);}
	.st4{fill:url(#SVGID_4_);}
	.st5{fill:url(#SVGID_5_);}
	.st6{fill:url(#SVGID_6_);}
	.st7{fill:#469BD5;}
	.st8{fill:url(#SVGID_7_);}
	.st9{fill:url(#SVGID_8_);}
	.st10{fill:url(#SVGID_9_);}
	.st11{fill:url(#SVGID_10_);}
	.st12{fill:url(#SVGID_11_);}
	.st13{fill:url(#SVGID_12_);}
	.st14{fill:#177FE2;}
	.st15{fill:#FFFFFF;}
	.st16{fill:#15161F;}
	.st17{fill:url(#SVGID_13_);}
	.st18{fill:url(#SVGID_14_);}
	.st19{fill:url(#SVGID_15_);}
	.st20{fill:url(#SVGID_16_);}
	.st21{fill:url(#SVGID_17_);}
	.st22{fill:url(#SVGID_18_);}
	.st23{fill:url(#SVGID_19_);}
	.st24{fill:url(#SVGID_20_);}
	.st25{fill:url(#SVGID_21_);}
	.st26{fill:url(#SVGID_22_);}
	.st27{fill:url(#SVGID_23_);}
	.st28{fill:url(#SVGID_24_);}
	.st29{fill:url(#SVGID_25_);}
	.st30{fill:url(#SVGID_26_);}
	.st31{fill:url(#SVGID_27_);}
	.st32{fill:url(#SVGID_28_);}
	.st33{fill:url(#SVGID_29_);}
	.st34{fill:url(#SVGID_30_);}
	.st35{fill:url(#SVGID_31_);}
	.st36{fill:url(#SVGID_32_);}
	.st37{fill:url(#SVGID_33_);}
	.st38{fill:url(#SVGID_34_);}
	.st39{fill:#4196D2;}
	.st40{fill:#171921;stroke:#221F1F;stroke-miterlimit:10;}
	.st41{opacity:0.9;fill:#469BD5;}
	.st42{opacity:0.8;fill:#469BD5;}
	.st43{opacity:0.7;fill:#469BD5;}
	.st44{opacity:0.6;fill:#469BD5;}
	.st45{opacity:0.5;fill:#469BD5;}
	.st46{opacity:0.4;fill:#469BD5;}
	.st47{opacity:0.3;fill:#469BD5;}
	.st48{opacity:0.2;fill:#469BD5;}
	.st49{opacity:0.1;fill:#469BD5;}
	.st50{fill:#093954;}
	.st51{opacity:0.9;fill:#093954;}
	.st52{opacity:0.8;fill:#093954;}
	.st53{opacity:0.7;fill:#093954;}
	.st54{opacity:0.6;fill:#093954;}
	.st55{opacity:0.5;fill:#093954;}
	.st56{opacity:0.4;fill:#093954;}
	.st57{opacity:0.3;fill:#093954;}
	.st58{opacity:0.2;fill:#093954;}
	.st59{opacity:0.1;fill:#093954;}
	.st60{fill:#AAD4F1;}
	.st61{fill:url(#SVGID_35_);}
	.st62{fill:url(#SVGID_36_);}
	.st63{fill:url(#SVGID_37_);}
	.st64{fill:url(#SVGID_38_);}
	.st65{fill:none;stroke:#FFFFFF;stroke-width:1.008;stroke-miterlimit:10;}
	.st66{fill:none;stroke:#FFFFFF;stroke-width:1.0179;stroke-miterlimit:10;}
	.st67{fill:url(#SVGID_39_);}
	.st68{fill:#FFFFFF;stroke:#15161F;stroke-width:0.2062;stroke-miterlimit:10;}
</style>
<g>
	<g>
		<path class="st14" d="M338.76,859.46c224.05,0,427.04-122.69,531.95-320.53V280.1c0-16.19-8.63-31.15-22.65-39.24L467.18,20.96
			c-14.02-8.09-31.3-8.09-45.31,0L40.99,240.86c-14.02,8.09-22.65,23.05-22.65,39.24v439.8c0,16.19,8.64,31.15,22.65,39.24
			l134.13,77.44C228.48,851.62,283.47,859.46,338.76,859.46z"/>
		<path class="st14" d="M338.76,870.76c-43.06,0-85.94-4.63-128.03-13.61l211.14,121.9c14.02,8.09,31.29,8.09,45.31,0l380.88-219.9
			c14.02-8.1,22.65-23.05,22.65-39.24V562.07C761.29,753.07,560.17,870.76,338.76,870.76z"/>
	</g>
	<g>
		<path class="st15" d="M636.58,291.27c-31.21,71.57-83.14,93.35-123.63,98.56c14.45-9.1,19.78-24.27,19.78-44.71
			c0-17.86-1.93-34.71-9.86-43.57c-13.43-14.86-26.78-15.86-42.14-17.36H244.61l143.06-85.14c3-2,12.36-4.5,20.28-4.5
			c14.35,0,71.55,0,85.21,0c42.07,0,80.71,16.86,105.92,39.64C616.44,249.7,628.29,268.98,636.58,291.27z"/>
		<path class="st15" d="M548.09,556.53v75.71c0,10.93-5.43,20.28-14.36,25.78l-144.78,71.14v-98.64L548.09,556.53z"/>
		<path class="st15" d="M401.95,398.55c-13.49,9.34-20.18,29.18-20.21,54.78v273.69l-83.64-58.64V443.61
			c0-19.28,17.78-45.07,37.57-45.07H401.95z"/>
		<path class="st15" d="M644.44,343.12c0,51.95-26.94,96.42-68.35,121.28c-49.5,29.71-100.99,26.28-100.99,26.28h-86.14v-37.35
			c0-14.14,2.36-35.71,15.36-47.28c3.93-3.5,8.71-6.07,14.78-7.29c2.74-0.55,61.25-0.26,64-0.07c6.58,0.44,38.34-0.53,63.64-9.21
			c33.28-11.43,68.5-36.35,93.06-87.57C642.86,314.77,644.44,328.34,644.44,343.12z"/>
	</g>
</g>
</svg>
