<?xml version="1.0" encoding="utf-8"?>
<!-- Generator: Adobe Illustrator 24.0.0, SVG Export Plug-In . SVG Version: 6.00 Build 0)  -->
<svg version="1.1" id="Layer_1" xmlns="http://www.w3.org/2000/svg" xmlns:xlink="http://www.w3.org/1999/xlink" x="0px" y="0px"
	 viewBox="0 0 1000 422.97" style="enable-background:new 0 0 1000 422.97;" xml:space="preserve">
<style type="text/css">
	.st0{fill:#DFF2F6;}
	.st1{fill:url(#SVGID_1_);}
	.st2{fill:url(#SVGID_2_);}
	.st3{fill:url(#SVGID_3_);}
	.st4{fill:url(#SVGID_4_);}
	.st5{fill:url(#SVGID_5_);}
	.st6{fill:url(#SVGID_6_);}
	.st7{fill:#469BD5;}
	.st8{fill:url(#SVGID_7_);}
	.st9{fill:url(#SVGID_8_);}
	.st10{fill:url(#SVGID_9_);}
	.st11{fill:url(#SVGID_10_);}
	.st12{fill:url(#SVGID_11_);}
	.st13{fill:url(#SVGID_12_);}
	.st14{fill:#177FE2;}
	.st15{fill:#FFFFFF;}
	.st16{fill:#15161F;}
	.st17{fill:url(#SVGID_13_);}
	.st18{fill:url(#SVGID_14_);}
	.st19{fill:url(#SVGID_15_);}
	.st20{fill:url(#SVGID_16_);}
	.st21{fill:url(#SVGID_17_);}
	.st22{fill:url(#SVGID_18_);}
	.st23{fill:url(#SVGID_19_);}
	.st24{fill:url(#SVGID_20_);}
	.st25{fill:url(#SVGID_21_);}
	.st26{fill:url(#SVGID_22_);}
	.st27{fill:url(#SVGID_23_);}
	.st28{fill:url(#SVGID_24_);}
	.st29{fill:url(#SVGID_25_);}
	.st30{fill:url(#SVGID_26_);}
	.st31{fill:url(#SVGID_27_);}
	.st32{fill:url(#SVGID_28_);}
	.st33{fill:url(#SVGID_29_);}
	.st34{fill:url(#SVGID_30_);}
	.st35{fill:url(#SVGID_31_);}
	.st36{fill:url(#SVGID_32_);}
	.st37{fill:url(#SVGID_33_);}
	.st38{fill:url(#SVGID_34_);}
	.st39{fill:#4196D2;}
	.st40{fill:#171921;stroke:#221F1F;stroke-miterlimit:10;}
	.st41{opacity:0.9;fill:#469BD5;}
	.st42{opacity:0.8;fill:#469BD5;}
	.st43{opacity:0.7;fill:#469BD5;}
	.st44{opacity:0.6;fill:#469BD5;}
	.st45{opacity:0.5;fill:#469BD5;}
	.st46{opacity:0.4;fill:#469BD5;}
	.st47{opacity:0.3;fill:#469BD5;}
	.st48{opacity:0.2;fill:#469BD5;}
	.st49{opacity:0.1;fill:#469BD5;}
	.st50{fill:#093954;}
	.st51{opacity:0.9;fill:#093954;}
	.st52{opacity:0.8;fill:#093954;}
	.st53{opacity:0.7;fill:#093954;}
	.st54{opacity:0.6;fill:#093954;}
	.st55{opacity:0.5;fill:#093954;}
	.st56{opacity:0.4;fill:#093954;}
	.st57{opacity:0.3;fill:#093954;}
	.st58{opacity:0.2;fill:#093954;}
	.st59{opacity:0.1;fill:#093954;}
	.st60{fill:#AAD4F1;}
	.st61{fill:url(#SVGID_35_);}
	.st62{fill:url(#SVGID_36_);}
	.st63{fill:url(#SVGID_37_);}
	.st64{fill:url(#SVGID_38_);}
	.st65{fill:none;stroke:#FFFFFF;stroke-width:1.008;stroke-miterlimit:10;}
	.st66{fill:none;stroke:#FFFFFF;stroke-width:1.0179;stroke-miterlimit:10;}
	.st67{fill:url(#SVGID_39_);}
	.st68{fill:#FFFFFF;stroke:#15161F;stroke-width:0.2062;stroke-miterlimit:10;}
</style>
<g>
	<g>
		<g>
			<path class="st14" d="M500.98,334.72h-2.75l-68.34-82.94v82.94H410.5V224.74h10.77c7.54,0,13.88,2.99,18.79,8.98l60.92,73.96
				v-82.94c5.39,0,9.93,1.91,13.76,5.74c3.83,3.83,5.74,8.38,5.74,13.76v90.48H500.98z"/>
			<path class="st14" d="M561.77,334.72c-10.17,0-18.79-3.71-25.73-11.25c-7.06-7.54-10.17-16.4-9.57-26.57
				c0.48-8.5,3.83-15.92,10.05-22.26c6.1-6.22,13.52-9.81,22.02-10.65c8.74-0.72,16.64,1.32,23.58,6.34s11.49,11.49,13.76,19.63
				l0.12,0.12v0.12h-0.36l-36.38,24.89c0.12,0,0.36,0,0.84,0.12c0.48,0,0.72,0.12,0.84,0.12c4.31,0.12,8.02-1.2,11.25-3.83
				c2.39-2.03,5.03-2.99,8.14-2.99H596c-2.03,7.54-6.22,13.88-12.57,18.79C577.09,332.21,569.91,334.72,561.77,334.72z
				 M561.77,283.26c-4.55,0-8.26,1.68-11.49,4.91c-3.11,3.23-4.67,7.18-4.43,11.85v0.84l23.1-15.68
				C566.8,283.86,564.41,283.26,561.77,283.26z"/>
			<path class="st14" d="M650.82,263.87c0,4.79-1.56,8.98-4.55,12.57c-2.99,3.47-6.82,5.74-11.49,6.58v16.4
				c0,4.43,1.56,8.14,4.79,11.25c3.11,3.11,6.94,4.79,11.25,4.79v19.27c-9.69,0-18.07-3.47-24.89-10.29
				c-6.94-6.94-10.29-15.32-10.29-25.13v-16.04h-17.47c0-4.91,1.68-9.22,5.03-12.93c3.35-3.71,7.54-5.74,12.45-6.34v-2.75
				c0-4.67,1.91-8.74,5.63-12.09c3.71-3.35,8.26-5.03,13.64-5.03v19.75C634.9,263.87,650.82,263.87,650.82,263.87z"/>
			<path class="st14" d="M780.2,334.72h-19.39v-3.83c-5.15,2.51-10.53,3.83-16.04,3.83c-20.59,0-18.55-3.71-25.61-11.01
				c-7.06,7.42-9.46,11.01-19.51,11.01h-18.91c-12.57,0-22.74-10.17-22.74-22.74v-48.11c5.39,0,19.39,8.14,19.39,13.4v26.57
				c0,6.34,5.15,11.49,11.49,11.49h4.55h4.67c6.22,0,11.25-5.03,11.25-11.25v-40.21c5.39,0,19.39,8.14,19.39,13.4v26.81
				c0,6.22,5.03,11.25,11.25,11.25h4.79h5.39c5.86,0,10.77-4.79,10.77-10.77v-40.69c5.39,0,19.39,8.14,19.39,13.4v57.45H780.2z"/>
			<path class="st14" d="M847.94,324.31c-6.94,6.94-15.32,10.41-25.01,10.41c-9.69,0-18.07-3.47-25.01-10.41
				c-6.94-6.94-10.41-15.32-10.41-25.01s3.47-18.07,10.41-25.01c6.94-6.94,15.32-10.41,25.01-10.41c9.69,0,18.07,3.47,25.01,10.41
				c6.94,6.94,10.41,15.32,10.41,25.01S854.88,317.37,847.94,324.31z M815.38,285.18c-5.63,3.11-8.5,7.78-8.5,14.12
				c0,4.43,1.56,8.14,4.79,11.25c3.11,3.11,6.94,4.79,11.25,4.79c4.43,0,8.14-1.56,11.25-4.79c3.11-3.11,4.79-6.94,4.79-11.25
				c0-6.34-2.75-11.01-8.38-14.12C825.44,282.42,820.41,282.42,815.38,285.18z"/>
			<path class="st14" d="M887.43,299.18v35.55h-19.39v-70.85c5.74,0,10.65,2.27,14.6,6.7c6.7-6.7,18.19-6.7,25.61-6.7v19.39
				c-4.43,0-12.93,1.56-16.04,4.67C889.11,291.04,887.43,294.75,887.43,299.18z"/>
			<path class="st14" d="M932.43,299.3v35.43h-19.39V224.74c5.39,0,9.93,1.91,13.76,5.74c3.83,3.83,5.74,8.38,5.74,13.64V275h0.12
				h2.15c18.07,0,20.82-11.13,20.82-11.13c3.35,0,23.7,0,23.7,0c-3.35,14.12-23.46,19.51-23.46,19.51s12.21,6.34,16.16,12.33
				c3.95,5.86,5.98,12.45,5.98,19.51v19.51h-19.39v-19.51c0-4.43-1.56-8.14-4.79-11.25c-3.11-3.11-6.94-4.79-11.25-4.79h-6.7
				C935.07,299.3,933.99,299.3,932.43,299.3z"/>
		</g>
		<g>
			<path class="st14" d="M455.74,96.42c10.29,0,19.03,3.59,26.33,10.89c7.3,7.3,10.89,16.04,10.89,26.33s-3.59,19.03-10.89,26.33
				c-7.3,7.3-16.04,10.89-26.33,10.89h-25.85v35.55H410.5v-90.6V96.42H455.74z M455.74,151.48c4.91,0,9.1-1.8,12.57-5.27
				c3.47-3.47,5.27-7.66,5.27-12.57s-1.8-9.1-5.27-12.57c-3.47-3.47-7.66-5.27-12.57-5.27h-25.85v52.9
				c0.48-4.79,2.63-8.86,6.34-12.33c3.71-3.35,8.02-5.03,12.93-5.03L455.74,151.48L455.74,151.48z"/>
			<path class="st14" d="M519.53,206.29v0.12h-19.39V96.42c5.39,0,9.93,1.91,13.76,5.74c3.83,3.83,5.74,8.38,5.74,13.76v71.09h15.68
				v3.71c0,4.43-1.56,8.14-4.55,11.13C527.67,204.74,523.95,206.29,519.53,206.29z"/>
			<path class="st14" d="M575.54,206.41c-9.69,0-18.07-3.47-25.01-10.41s-10.41-15.32-10.41-25.01c0-9.69,3.47-18.07,10.41-25.01
				s15.32-10.41,25.01-10.41c5.51,0,10.89,1.32,16.04,3.83v-3.83c5.39,0,9.93,1.91,13.76,5.74c3.83,3.83,5.74,8.38,5.74,13.76v51.46
				H591.7v-3.83C586.43,205.09,581.16,206.41,575.54,206.41z M586.91,159.73c-3.11-3.11-6.94-4.79-11.25-4.79
				c-4.43,0-8.14,1.56-11.25,4.79c-3.11,3.11-4.79,6.94-4.79,11.25c0,4.43,1.56,8.14,4.79,11.25c3.11,3.11,6.94,4.79,11.25,4.79
				c4.43,0,8.14-1.56,11.25-4.79c3.11-3.11,4.79-6.94,4.79-11.25C591.58,166.56,590.02,162.85,586.91,159.73z"/>
			<path class="st14" d="M666.38,135.56c0,4.79-1.56,8.98-4.55,12.57c-2.99,3.47-6.82,5.74-11.49,6.58v16.4
				c0,4.43,1.56,8.14,4.79,11.25c3.11,3.11,6.94,4.79,11.25,4.79v19.27c-9.69,0-18.07-3.47-24.89-10.29
				c-6.94-6.94-10.29-15.32-10.29-25.13v-16.04h-17.47c0-4.91,1.68-9.22,5.03-12.93c3.35-3.71,7.54-5.74,12.45-6.34v-2.75
				c0-4.67,1.91-8.74,5.63-12.09c3.71-3.35,8.26-5.03,13.64-5.03v19.75C650.46,135.56,666.38,135.56,666.38,135.56z"/>
			<path class="st14" d="M719.28,165.36c-2.75-1.91-8.5-5.74-17.59-6.34c-1.08-0.12-1.91,0.24-4.91-0.48
				c-0.84-0.24-2.15-0.48-2.75-2.03c-0.12-0.48-0.24-0.96-0.24-1.32c0,0,0,0,0-0.12v-0.12c0-0.36,0.12-0.72,0.24-0.96
				c0.6-1.56,2.51-2.99,5.03-3.11c2.63-0.12,4.79,1.08,5.63,2.87c0.48,1.08,1.32,2.75,2.51,2.75h16.28c0-5.74-2.39-10.77-7.18-14.84
				c-4.79-4.07-10.53-6.22-17.35-6.34c-6.7,0.12-12.45,2.27-17.23,6.34c-4.79,4.19-7.06,9.1-7.06,14.84
				c0,5.74,2.39,10.77,7.06,14.84c4.79,4.19,10.53,6.22,17.23,6.22c2.75,0,4.91,0.48,6.7,1.32c1.8,0.84,2.63,2.03,2.63,3.59
				c0,1.2-0.6,2.87-2.27,3.95c-1.56,1.08-3.59,1.56-5.86,1.68c-2.99,0-5.39-1.56-6.94-3.35c-1.32-1.8-3.11-2.75-5.51-2.75h-14.84
				c-0.12,5.86,1.91,11.01,6.1,15.56c4.19,4.43,9.22,7.42,15.68,8.62c1.2,0.24,3.59,0.6,5.39,0.6s4.19-0.24,5.27-0.48
				c6.34-1.2,11.37-4.19,15.68-8.5c4.19-4.31,6.34-9.45,6.34-15.2C727.54,175.77,725.26,169.67,719.28,165.36z"/>
		</g>
	</g>
	<g>
		<g>
			<path class="st14" d="M157.04,356.59c87.98,0,167.68-48.18,208.88-125.86V129.1c0-6.36-3.39-12.23-8.9-15.41L207.46,27.34
				c-5.51-3.18-12.29-3.18-17.79,0L40.11,113.69c-5.5,3.18-8.9,9.05-8.9,15.41v172.69c0,6.36,3.39,12.23,8.9,15.41l52.67,30.41
				C113.74,353.52,135.33,356.59,157.04,356.59z"/>
			<path class="st14" d="M157.04,361.03c-16.91,0-33.74-1.82-50.27-5.35l82.91,47.87c5.5,3.18,12.29,3.18,17.79,0l149.56-86.35
				c5.51-3.18,8.9-9.05,8.9-15.41v-61.97C322.95,314.82,243.98,361.03,157.04,361.03z"/>
		</g>
		<path class="st15" d="M273.37,132.02c-11.47,26.16-30,35.3-45.3,38.08c3.68-3.61,5.11-8.83,5.11-15.45
			c0-7.03-0.75-13.65-3.87-17.1c-5.26-5.86-10.49-6.24-16.54-6.84h-92.7l56.16-33.42c1.17-0.79,4.85-1.77,7.97-1.77h33.46
			c16.54,0,31.69,6.62,41.61,15.56C265.7,116.83,270.22,123.86,273.37,132.02z"/>
		<path class="st15" d="M239.24,237.65v29.73c0,4.29-2.14,7.97-5.64,10.11l-55.22,27.14v-38.68L239.24,237.65z"/>
		<path class="st15" d="M181.85,175.61c-5.3,3.67-7.93,11.46-7.94,21.51v107.47l-32.84-23.03v-88.26c0-7.57,6.98-17.7,14.75-17.7
			H181.85z"/>
		<path class="st15" d="M277.07,153.85c0,20.4-10.58,37.86-26.84,47.62c-19.44,11.67-39.66,10.32-39.66,10.32h-32.21v-14.67
			c0-5.55,0.93-14.02,6.03-18.57c1.54-1.37,3.42-2.38,5.81-2.86c1.07-0.21,22.43-0.1,23.51-0.03c2.58,0.17,15.05-0.21,24.99-3.62
			c13.07-4.49,26.9-14.28,36.54-34.38C276.45,142.71,277.07,148.04,277.07,153.85z"/>
	</g>
</g>
</svg>
